<svg width="48" height="48" viewBox="0 0 48 48" fill="none" xmlns="http://www.w3.org/2000/svg">
<circle cx="24" cy="24" r="24" fill="#C9C9C9"/>
<path d="M6.49982 39.983C6.62789 40.0164 6.76395 39.9979 6.87851 39.9317C6.99307 39.8654 7.07689 39.7567 7.11182 39.629C8.14182 35.786 12.3278 34.79 14.8298 34.194C15.4568 34.045 15.9518 33.927 16.2738 33.788C19.1238 32.551 20.0528 30.561 20.3308 29.109C20.3474 29.0226 20.3408 28.9334 20.3118 28.8503C20.2829 28.7673 20.2325 28.6934 20.1658 28.636C18.6818 27.355 17.4298 25.432 16.6398 23.22C16.6173 23.1567 16.5823 23.0985 16.5368 23.049C15.4918 21.913 14.8918 20.712 14.8918 19.755C14.8918 19.196 15.1028 18.821 15.5778 18.538C15.649 18.4955 15.7084 18.4359 15.7508 18.3647C15.7933 18.2935 15.8173 18.2128 15.8208 18.13C16.0418 13.036 19.6698 9.026 24.1198 9L24.2268 9.007C28.6988 9.069 32.3038 13.165 32.4328 18.331C32.4348 18.4016 32.4516 18.471 32.4823 18.5346C32.513 18.5982 32.5568 18.6545 32.6108 18.7C32.9238 18.965 33.0698 19.301 33.0698 19.757C33.0698 20.558 32.6428 21.543 31.8688 22.529C31.8315 22.5762 31.8031 22.6297 31.7848 22.687C30.9848 25.223 29.5488 27.462 27.8468 28.832C27.7761 28.8888 27.7222 28.9638 27.6909 29.0488C27.6595 29.1339 27.6519 29.2259 27.6688 29.315C27.9468 30.766 28.8758 32.755 31.7258 33.994C32.0628 34.14 32.5858 34.254 33.2488 34.397C35.7258 34.933 39.8708 35.832 40.8878 39.629C40.9049 39.6924 40.9343 39.7519 40.9743 39.8039C41.0144 39.856 41.0643 39.8997 41.1212 39.9325C41.1781 39.9652 41.241 39.9865 41.3061 39.995C41.3712 40.0035 41.4374 39.9991 41.5008 39.982C41.5642 39.9649 41.6237 39.9355 41.6758 39.8955C41.7278 39.8554 41.7715 39.8055 41.8043 39.7486C41.8371 39.6917 41.8583 39.6289 41.8668 39.5637C41.8753 39.4986 41.8709 39.4324 41.8538 39.369C40.6788 34.982 35.9828 33.965 33.4608 33.419C32.8758 33.292 32.3708 33.183 32.1248 33.075C30.2648 32.267 29.1188 31.036 28.7138 29.41C30.4408 27.927 31.8858 25.639 32.7118 23.073C33.5888 21.933 34.0708 20.759 34.0708 19.756C34.0708 19.087 33.8548 18.529 33.4268 18.093C33.1888 12.489 29.1898 8.076 24.2268 8.005L24.0778 8.003C19.2048 8.029 15.1888 12.326 14.8378 17.833C14.2118 18.293 13.8938 18.938 13.8938 19.757C13.8938 20.94 14.5628 22.355 15.7338 23.653C16.5428 25.876 17.7968 27.829 19.2898 29.196C18.8868 30.828 17.7398 32.063 15.8758 32.872C15.6348 32.977 15.1548 33.092 14.5988 33.224C12.0578 33.828 7.32982 34.953 6.14582 39.371C6.11163 39.4991 6.12971 39.6355 6.1961 39.7503C6.26248 39.8651 6.37173 39.9488 6.49982 39.983Z" fill="white"/>
</svg>
